<?xml version="1.0" encoding="UTF-8" standalone="no"?>
<!-- Created with Inkscape (http://www.inkscape.org/) -->

<svg
   xmlns:dc="http://purl.org/dc/elements/1.1/"
   xmlns:cc="http://creativecommons.org/ns#"
   xmlns:rdf="http://www.w3.org/1999/02/22-rdf-syntax-ns#"
   xmlns:svg="http://www.w3.org/2000/svg"
   xmlns="http://www.w3.org/2000/svg"
   xmlns:sodipodi="http://sodipodi.sourceforge.net/DTD/sodipodi-0.dtd"
   xmlns:inkscape="http://www.inkscape.org/namespaces/inkscape"
   id="svg2"
   version="1.1"
   inkscape:version="0.48.3.1 r9886"
   width="442.39938"
   height="398.76038"
   xml:space="preserve"
   sodipodi:docname="devecoop-logo-curvas (copy).ai"><metadata
     id="metadata8"><rdf:RDF><cc:Work
         rdf:about=""><dc:format>image/svg+xml</dc:format><dc:type
           rdf:resource="http://purl.org/dc/dcmitype/StillImage" /><dc:title></dc:title></cc:Work></rdf:RDF></metadata><defs
     id="defs6"><clipPath
       clipPathUnits="userSpaceOnUse"
       id="clipPath16"><path
         d="M 0,792 612,792 612,0 0,0 0,792 z"
         id="path18"
         inkscape:connector-curvature="0" /></clipPath><clipPath
       clipPathUnits="userSpaceOnUse"
       id="clipPath24"><path
         d="m 72.668,275.792 64.055,0 0,-32.557 -64.055,0 0,32.557 z"
         id="path26"
         inkscape:connector-curvature="0" /></clipPath><clipPath
       clipPathUnits="userSpaceOnUse"
       id="clipPath64"><path
         d="M 0,792 612,792 612,0 0,0 0,792 z"
         id="path66"
         inkscape:connector-curvature="0" /></clipPath><clipPath
       clipPathUnits="userSpaceOnUse"
       id="clipPath264"><path
         d="m 210.539,748.293 107.428,0 0,-54.601 -107.428,0 0,54.601 z"
         id="path266"
         inkscape:connector-curvature="0" /></clipPath></defs><sodipodi:namedview
     pagecolor="#ffffff"
     bordercolor="#666666"
     borderopacity="1"
     objecttolerance="10"
     gridtolerance="10"
     guidetolerance="10"
     inkscape:pageopacity="0"
     inkscape:pageshadow="2"
     inkscape:window-width="1366"
     inkscape:window-height="744"
     id="namedview4"
     showgrid="false"
     fit-margin-top="20"
     fit-margin-left="20"
     fit-margin-right="20"
     fit-margin-bottom="20"
     inkscape:zoom="1.9070707"
     inkscape:cx="224.0621"
     inkscape:cy="156.80062"
     inkscape:window-x="0"
     inkscape:window-y="24"
     inkscape:window-maximized="1"
     inkscape:current-layer="g62" /><g
     id="g10"
     inkscape:groupmode="layer"
     inkscape:label="devecoop-logo-curvas (copy)"
     transform="matrix(1.25,0,0,-1.25,-154.54425,955.36738)"><g
       id="g60"><g
         id="g62"
         clip-path="url(#clipPath64)"><g
           id="g260"><g
             id="g262" /><g
             id="g268"><g
               clip-path="url(#clipPath264)"
               id="g270"><g
                 transform="translate(317.9668,748.2935)"
                 id="g272"><path
                   d="m 0,0 -54.25,-54.602 -53.178,0 L -53.042,0 0,0 z"
                   style="fill:#00abe0;fill-opacity:1;fill-rule:nonzero;stroke:none"
                   id="path274"
                   inkscape:connector-curvature="0" /></g></g></g></g><g
           id="g276"
           transform="translate(284.4624,584.4922)"><path
             d="m 0,0 53.006,54.6 53.182,0 L 51.799,0 0,0 z"
             style="fill:#f7d755;fill-opacity:1;fill-rule:nonzero;stroke:none"
             id="path278"
             inkscape:connector-curvature="0" /></g><g
           id="g280"
           transform="translate(264.9243,584.4922)"><path
             d="m 0,0 -54.598,54.6 0,54.6 L 0,163.801 0,0 z"
             style="fill:#2074af;fill-opacity:1;fill-rule:nonzero;stroke:none"
             id="path282"
             inkscape:connector-curvature="0" /></g><g
           id="g284"
           transform="translate(264.9243,584.4922)"><path
             d="M 0,0 -54.386,54.6 62.968,54.6 8.583,0 0,0 z"
             style="fill:#634c96;fill-opacity:1;fill-rule:nonzero;stroke:none"
             id="path286"
             inkscape:connector-curvature="0" /></g><g
           id="g288"
           transform="translate(336.2617,748.2935)"><path
             d="m 0,0 54.602,-54.602 0,-54.599 L 0,-163.801 0,0 z"
             style="fill:#f58566;fill-opacity:1;fill-rule:nonzero;stroke:none"
             id="path290"
             inkscape:connector-curvature="0" /></g><g
           id="g292"
           transform="translate(336.2617,748.2935)"><path
             d="m 0,0 54.389,-54.602 -117.358,0 L -8.582,0 0,0 z"
             style="fill:#ee374f;fill-opacity:1;fill-rule:nonzero;stroke:none"
             id="path294"
             inkscape:connector-curvature="0" /></g><g
           id="g296"
           transform="translate(273.2925,693.6919)"><path
             d="M 0,0 54.6,54.602 54.6,-54.6 0,-109.2 0,0 z"
             style="fill:#bd3480;fill-opacity:1;fill-rule:nonzero;stroke:none"
             id="path298"
             inkscape:connector-curvature="0" /></g><g
           id="g300"
           transform="translate(196.9526,526.7734)"><path
             d="m 0,0 c -3.187,0 -4.801,-1.717 -4.801,-5.104 l 0,-11.916 10.918,0 0,11.916 C 6.117,-1.717 4.503,0 1.321,0 L 0,0 z m 0,-48.09 c -14.973,0 -15.639,4.285 -15.639,13.197 l 0,29.481 c 0,8.982 0.666,13.299 15.639,13.299 l 1.321,0 c 15.035,0 15.737,-4.559 15.737,-13.299 l 0,-18.828 -21.859,-0.406 0,-10.553 c 0,-3.367 1.572,-5 4.801,-5 l 1.523,0 c 3.232,0 4.798,1.633 4.798,5 l 0,2.623 10.737,0 0,-2.317 c 0,-8.671 -0.702,-13.197 -15.737,-13.197 l -1.321,0 z"
             style="fill:#4c4c4e;fill-opacity:1;fill-rule:nonzero;stroke:none"
             id="path302"
             inkscape:connector-curvature="0" /></g><g
           id="g304"
           transform="translate(229.0298,479.0918)"><path
             d="m 0,0 -9.455,54.959 9.715,0 6.744,-41.377 4.787,0 6.747,41.377 9.619,0 L 18.794,0 0,0 z"
             style="fill:#4c4c4e;fill-opacity:1;fill-rule:nonzero;stroke:none"
             id="path306"
             inkscape:connector-curvature="0" /></g><g
           id="g308"
           transform="translate(278.688,526.7734)"><path
             d="m 0,0 c -3.188,0 -4.801,-1.717 -4.801,-5.104 l 0,-11.916 10.921,0 0,11.916 C 6.12,-1.717 4.503,0 1.32,0 L 0,0 z m 0,-48.09 c -14.971,0 -15.637,4.285 -15.637,13.197 l 0,29.481 c 0,8.982 0.666,13.299 15.637,13.299 l 1.32,0 c 15.035,0 15.739,-4.559 15.739,-13.299 l 0,-18.828 -21.86,-0.406 0,-10.553 c 0,-3.367 1.569,-5 4.801,-5 l 1.525,0 c 3.228,0 4.797,1.633 4.797,5 l 0,2.623 10.737,0 0,-2.317 c 0,-8.671 -0.704,-13.197 -15.739,-13.197 l -1.32,0 z"
             style="fill:#4c4c4e;fill-opacity:1;fill-rule:nonzero;stroke:none"
             id="path310"
             inkscape:connector-curvature="0" /></g><g
           id="g312"
           transform="translate(319.4531,478.6836)"><path
             d="m 0,0 c -14.971,0 -15.635,4.285 -15.635,13.197 l 0,29.481 c 0,8.982 0.664,13.299 15.635,13.299 l 1.625,0 c 14.975,0 15.639,-4.317 15.639,-13.299 l 0,-8.11 -10.94,0 0,8.11 c 0,3.322 -1.584,5.004 -4.699,5.004 l -1.625,0 c -3.232,0 -4.799,-1.635 -4.799,-5.004 l 0,-29.481 c 0,-3.32 1.613,-5.002 4.799,-5.002 l 1.625,0 c 2.143,0 4.699,0.868 4.699,5.002 l 0,7.805 10.94,0 0,-7.805 C 17.264,4.285 16.6,0 1.625,0 L 0,0 z"
             style="fill:#4c4c4e;fill-opacity:1;fill-rule:nonzero;stroke:none"
             id="path314"
             inkscape:connector-curvature="0" /></g><g
           id="g316"
           transform="translate(361.1348,526.5684)"><path
             d="m 0,0 c -3.301,0 -4.904,-1.703 -4.904,-5.207 l 0,-29.582 c 0,-3.391 1.613,-5.107 4.8,-5.107 l 1.831,0 c 3.185,0 4.796,1.716 4.796,5.107 L 6.625,-5.213 C 6.625,-1.75 4.977,0 1.727,0 L 0,0 z m -0.104,-47.885 c -14.843,0 -15.533,4.49 -15.533,13.096 l 0,29.582 c 0,8.672 0.69,13.197 15.533,13.197 l 1.831,0 C 16.502,7.99 17.16,3.709 17.16,-5.207 l 0,-29.582 c 0,-8.844 -0.658,-13.096 -15.433,-13.096 l -1.831,0 z"
             style="fill:#4c4c4e;fill-opacity:1;fill-rule:nonzero;stroke:none"
             id="path318"
             inkscape:connector-curvature="0" /></g><g
           id="g320"
           transform="translate(402.7129,526.5684)"><path
             d="m 0,0 c -3.299,0 -4.902,-1.703 -4.902,-5.207 l 0,-29.582 c 0,-3.391 1.615,-5.107 4.797,-5.107 l 1.832,0 c 3.185,0 4.798,1.716 4.798,5.107 L 6.627,-5.213 C 6.627,-1.75 4.979,0 1.727,0 L 0,0 z m -0.105,-47.885 c -14.84,0 -15.532,4.49 -15.532,13.096 l 0,29.582 c 0,8.672 0.692,13.197 15.532,13.197 l 1.832,0 C 16.5,7.99 17.162,3.709 17.162,-5.207 l 0,-29.582 c 0,-8.844 -0.662,-13.096 -15.435,-13.096 l -1.832,0 z"
             style="fill:#4c4c4e;fill-opacity:1;fill-rule:nonzero;stroke:none"
             id="path322"
             inkscape:connector-curvature="0" /></g><g
           id="g324"
           transform="translate(449.3789,534.5586)"><path
             d="m 0,0 -1.936,0 c -6.296,0 -14.71,-0.275 -18.685,-0.42 l 0,-72.853 10.633,9.263 0,4.994 0,3.596 0,8.248 0,38.369 4.365,0 2.162,0 c 3.32,0 5.006,-1.851 5.006,-5.511 l 0,-27.247 c 0,-3.724 -1.686,-5.611 -5.006,-5.611 l -2.162,0 0,-8.332 c 1.611,-0.031 3.818,-0.066 5.01,-0.066 l 1.929,0 c 8.413,0 10.86,1.519 10.86,11.568 l 0,31.824 C 12.176,-2.959 9.215,0 0,0"
             style="fill:#4c4c4e;fill-opacity:1;fill-rule:nonzero;stroke:none"
             id="path326"
             inkscape:connector-curvature="0" /></g><g
           id="g328"
           transform="translate(161.7974,542.4453)"><path
             d="m 0,0 0,-4.758 0.033,0 0,-50.211 -0.033,0 0,-0.09 -6.528,0 c -4.999,0 -4.999,4.225 -4.999,5.612 l 0,27.246 c 0,1.365 0,5.512 4.999,5.512 l 2.202,0 0,8.294 -6.981,0 c -8.544,0 -10.855,-1.416 -10.855,-11.365 l 0,-32.129 c 0,-10.156 3.756,-11.873 12.179,-11.873 l 1.93,0 c 6.165,0 14.664,0.223 18.684,0.338 l 0,74.156 L 0,0 z"
             style="fill:#4c4c4e;fill-opacity:1;fill-rule:nonzero;stroke:none"
             id="path330"
             inkscape:connector-curvature="0" /></g></g></g></g></svg>